<svg id="Layer_1" data-name="Layer 1" xmlns="http://www.w3.org/2000/svg" viewBox="0 0 720 360"><defs><style>.cls-1{fill:#ffa543;}</style></defs><title>mountain01</title><path class="cls-1" d="M721.80491,111.46637a58.31008,58.31008,0,0,1-35.40779-9.33409c-6.28172-4.17241-11.66849-9.52779-17.33074-14.50853A183.70885,183.70885,0,0,0,616.0311,55.04788c-4.23147-1.691-8.79858-3.24844-13.26474-2.34389-3.26423.66111-6.11771,2.57476-8.83807,4.49619A270.77866,270.77866,0,0,0,555.83322,89.7938c-10.91622,11.25111-21.06409,23.62675-34.42244,31.83076s-31.16545,11.4625-44.56193,3.32088c-4.271-2.59568-7.97564-6.25581-12.70932-7.85945-4.01718-1.36092-8.37843-1.09994-12.61084-.82325-22.40886,1.465-46.277,3.45662-64.07764,17.14748-6.747,5.18927-12.37276,11.91213-19.84779,15.98333-24.51271,13.3506-53.70487-6.9834-81.6161-7.25713-6.14625-.06028-12.305.87981-18.42291.287-16.66993-1.61526-29.91322-13.97318-43.42287-23.87192s-31.65391-17.94887-46.49493-10.18744c-8.72847,4.56474-15.585,14.275-25.42961,13.94932-5.827-.19277-10.85685-4.02141-16.4684-5.60312-12.25444-3.45413-24.88,4.23447-33.922,13.19806S85.02422,149.72818,73.553,155.252c-2.08571,1.00435-4.42724,1.82726-6.68249,1.305-2.61776-.60626-4.4821-2.8521-6.14322-4.96419L43.9861,130.30675c-3.36233-4.27514-7.1133-8.81071-12.38995-10.12945-3.73894-.93443-7.66873-.08491-11.52112-.19441-8.20008-.23308-15.33027-4.63614-22.2409-9.68888V367.22609H721.80491Z"/></svg>